<svg xmlns="http://www.w3.org/2000/svg" xmlns:xlink="http://www.w3.org/1999/xlink" viewBox="0 0 191.1 72"><style><![CDATA[.D{fill:#fff}]]></style><path d="M163.1 19.1c.2 0 .3.1.5.1.6 0 1.1-.2 1.5-.6 0 0 .1 0 .1-.1.4-.4.6-.9.7-1.5 0-.8-.4-1.5-1-1.9-.4-.3-.8-.4-1.3-.4h0-.3c-1.1.1-1.9 1-1.9 2.2 0 1.1.7 2 1.7 2.2zm-.3 1.1a3.12 3.12 0 0 0-3.1 3.1 3.12 3.12 0 0 0 3.1 3.1 3.12 3.12 0 0 0 3.1-3.1 3.12 3.12 0 0 0-3.1-3.1zm5.9-5.1c-.7 0-1.3.6-1.3 1.3s.6 1.3 1.3 1.3 1.3-.6 1.3-1.3-.6-1.3-1.3-1.3zm-5 13.1c-.1-.1-.3-.1-.4-.1h0 0c-.3 0-.5.1-.7.3s-.3.4-.3.7c0 .2.1.4.2.6s.3.3.3 1.3v.5.5.9.3c0 .2-.1.5-.1.7-.8 4.3-4.3 7.7-8.7 8.4-.5.1-1.1.1-1.6.1-1.2 0-2.3-.2-3.4-.6v.4c0 .6.2 1.5.4 2.6-2.3-4.2-3.8-13.9 0-17.7 1.2-1.2 3-1.8 4.6-1.6 5.1.5 5.4 8.5.1 8.7-1.8.1-3.8-1-4.9-3.8-.4 4.1 2.4 7 5.6 7 2.8 0 4.7-1.6 5.6-3.7 2.2-5-1.8-11-7-10.7-7.9.5-10.1 8.3-9.6 15.5-4.2-7.7-.2-17.2 8.8-17.2a10.3 10.3 0 0 1 3.5.6c-.7-.4-1.5-.7-2.4-1h.1c-.2-.1-.4-.1-.6-.2-.8-.2-1.6-.4-2.5-.4-.7-.1-1.3-.1-2-.1-4.3 0-8.4 1.6-11.5 4.8-2.1 2.2-3.6 4.8-4.7 7.5-1.2 2.9-2 6.9-2.5 10.3-.1.8.5 1.5 1.3 1.5h1.1c.8.3 1.1.6 1.1 1.5-.1 1.7-.1 2.9 0 4.6 0 1.5.9 2.1 2.5 2.1l4.1.1c1.3.1 1.5.6 1.5 1.9v2.4c0 .5.1.8.7.8h12.6c.5 0 .7-.2.7-.7v-2.6s0-.9.2-1.7c.4-1.8 2.5-4.2 2.6-4.3 1.4-1.4 2.5-3 3.5-4.6 1.9-2.9 2.4-6.3 2.3-9.6h0v-.1c0-.5 0-1-.1-1.5 0-.8-.5-1.9.1-2.6h0 0c.1-.2.2-.4.2-.6-.1-.7-.3-1.1-.7-1.2z" fill-rule="evenodd" class="D"/><path d="M23.6 40.7c-.5-.3-.9-.7-1.2-1.2s-.4-1-.4-1.6v-1.5h2v1.4c0 .3.1.6.4.8.2.2.5.4.8.4h3.7c.2 0 .3-.1.5-.2.1-.1.2-.3.2-.5v-2h2v2c0 .5-.1 1-.3 1.4s-.5.7-.9 1-.8.4-1.3.4h-3.7c-.8 0-1.3-.1-1.8-.4zm1.2-6h1.7v1.7h-1.7v-1.7zm2.3 0h1.7v1.7h-1.7v-1.7zm5.3 7.5c.2-.2.4-.4.5-.6s.1-.5.1-1v-4.1h2v4.1a7.18 7.18 0 0 1-.2 1.7c-.1.4-.5.9-.9 1.2-.4.4-1 .7-1.8 1.1l-.9-1.6 1.2-.8z" class="D"/><use xlink:href="#B" class="D"/><use xlink:href="#C" class="D"/><path d="M40.1 41v-1.8c0-.1 0-.1.1-.1h1.4c.1 0 .2 0 .3-.1s.1-.2.1-.3v-2.5h2v2.7c0 .4-.1.8-.3 1.2s-.5.6-.8.9-.8.3-1.2.3h-1.5c0-.2-.1-.2-.1-.3zm.1 1.1h1.7v1.7h-1.7v-1.7zm1.2 2.3h1.7v1.7h-1.7v-1.7zm1.1-2.3h1.7v1.7h-1.7v-1.7zm5.9-1.4c-.5-.3-.9-.7-1.2-1.2s-.4-1-.4-1.6v-1.5h2v1.4c0 .3.1.6.4.8.2.2.5.4.8.4h3.7c.2 0 .3-.1.5-.2.1-.1.2-.3.2-.5v-2h2v2c0 .5-.1 1-.3 1.4s-.5.7-.9 1-.8.4-1.3.4H50c-.6 0-1.1-.1-1.6-.4zm1.2-6h1.7v1.7h-1.7v-1.7zm2.3 0h1.7v1.7h-1.7v-1.7z" class="D"/><use xlink:href="#B" x="21.3" class="D"/><use xlink:href="#C" x="21.3" class="D"/><path d="M69.2 39.2V41c0 .1 0 .1-.1.1h-7.5c-.1 0-.1 0-.1-.1v-1.8c0-.1 0-.1.1-.1h1.3c-.1-.3-.1-.6-.1-.9v-.4H62v-2h6.5v2.4c0 .3 0 .6-.1.9h.7c0 0 .1 0 .1.1zm-4.4-.3c.1.1.3.2.5.2h.6c.2 0 .3-.1.5-.2.1-.1.2-.3.2-.5v-.6h-1.9v.6c0 .2 0 .4.1.5z" class="D"/><path d="M68.9 41v-1.8c0-.1 0-.1.1-.1h1.5c.1 0 .1 0 .1.1V41c0 .1 0 .1-.1.1H69s-.1 0-.1-.1z" class="D"/><path d="M70.4 41v-1.8c0-.1 0-.1.1-.1h.5c.1 0 .2 0 .3-.1s.1-.2.1-.3V33h2v5.8c0 .4-.1.8-.3 1.2s-.5.6-.8.9-.8.3-1.2.3h-.5c-.2-.1-.2-.1-.2-.2z" class="D"/><use xlink:href="#B" x="38.4" class="D"/><path d="M85.8 39.2V41c0 .1 0 .1-.1.1h-.5c-.6 0-1.1-.2-1.4-.6-.2.2-.5.4-.8.5s-.6.2-.9.2h-4.8c-.1 0-.1 0-.1-.1v-1.8c0-.1 0-.1.1-.1h.9l-.5-1.3.9-.5h-.1c.1-.1.2-.2.3-.4 0-.2.1-.4.1-.6V33h2v1.7c0 .4 0 .7-.1.9 0 .2-.1.4-.2.5.3-.2.6-.3.8-.4s.5-.1.8-.1c.5 0 1 .1 1.4.4s.8.6 1 1 .4.9.4 1.4v.3c0 .1 0 .2.1.3s.2.1.3.1h.5c-.1 0-.1 0-.1.1zm-3.2-.4c.1-.1.2-.3.2-.5s-.1-.4-.2-.6-.3-.2-.6-.2c-.1 0-.2 0-.4.1-.1.1-.3.2-.5.3L79.2 39H82c.2.1.4 0 .6-.2z" class="D"/><use xlink:href="#C" x="46.9" class="D"/><path d="M87 41v-1.8c0-.1 0-.1.1-.1h1.5c.1 0 .1 0 .1.1V41c0 .1 0 .1-.1.1h-1.5s-.1 0-.1-.1z" class="D"/><path d="M93.8 36.2c.4.2.7.5 1 .9.2.4.4.8.4 1.3s-.1.9-.4 1.4a2.41 2.41 0 0 1-1 1c-.4.2-.9.4-1.4.4-.6 0-1.2-.2-1.6-.6-.3.4-.8.6-1.4.6h-.8c-.1 0-.1 0-.1-.1v-1.8c0-.1 0-.1.1-.1h.8c.1 0 .2 0 .3-.1s.1-.2.1-.3V38H89v-2h3.3c.6-.1 1.1 0 1.5.2zm-.9 2.7c.1-.1.2-.3.2-.5s-.1-.3-.2-.4-.3-.2-.5-.2h-.6v.6c0 .2.1.3.2.5.1.1.3.2.5.2.1 0 .2-.1.4-.2zm8.6.3V41c0 .1 0 .1-.1.1h-.5-.4c0 .6-.2 1-.3 1.4s-.5.7-.9 1.1c-.4.3-1 .7-1.7 1l-.8-1.6c.6-.3 1-.6 1.2-.8s.4-.4.5-.6.1-.5.1-1v-4.1h2v2.2c0 .1 0 .2.1.3s.2.1.3.1h.5v.1zm-1.1-5.4v1.7h-1.7v-1.7h1.7z" class="D"/><use xlink:href="#C" x="62.6" class="D"/><use xlink:href="#C" x="64" class="D"/><path d="M104.3 39.1h2.7c.2 0 .3-.1.5-.2s.2-.3.2-.5-.1-.4-.3-.6l-2.7-1.8v-1.5l2.4-2.6 1.3 1.3-1.7 1.8 1.8 1.2a2.36 2.36 0 0 1 .8.9c.2.4.3.8.3 1.2 0 .5-.1.9-.4 1.4-.2.4-.6.7-1 1-.4.2-.9.4-1.3.4h-2.7c-.1 0-.1 0-.1-.1v-1.8c.1-.1.1-.1.2-.1zm9.8.1V41c0 .1 0 .1-.1.1h-.5-.4c0 .6-.2 1-.3 1.4s-.5.7-.9 1.1c-.4.3-1 .7-1.7 1l-.7-1.6c.6-.3 1-.6 1.2-.8s.4-.4.5-.6.1-.5.1-1v-4.1h2v2.2c0 .1 0 .2.1.3s.2.1.3.1h.5c-.2 0-.1 0-.1.1z" class="D"/><path d="M113.8 41v-1.8c0-.1 0-.1.1-.1h1.5c.1 0 .1 0 .1.1V41c0 .1 0 .1-.1.1H114c-.1 0-.2 0-.2-.1z" class="D"/><use xlink:href="#C" x="76.6" class="D"/><path d="M122 36.2c.4.2.7.5 1 .9.2.4.4.8.4 1.3s-.1.9-.4 1.4a2.41 2.41 0 0 1-1 1c-.4.2-.9.4-1.4.4-.6 0-1.2-.2-1.6-.6-.3.4-.8.6-1.4.6h-.8c-.1 0-.1 0-.1-.1v-1.8c0-.1 0-.1.1-.1h.8c.1 0 .2 0 .3-.1s.1-.2.1-.3V38h-.8v-2h3.3c.7-.1 1.1 0 1.5.2zm-.9 2.7c.1-.1.2-.3.2-.5s-.1-.3-.2-.4-.3-.2-.5-.2h-.6v.6c0 .2.1.3.2.5.1.1.3.2.5.2s.3-.1.4-.2zM23.3 56.4c-.1-.3-.2-.5-.2-.8s.1-.6.2-.9.3-.5.5-.7l1-1-.5-.5.5-.5 2 2a3.04 3.04 0 0 1 .5.7c.1.3.2.6.2.9s-.1.6-.2.8c-.1.3-.3.5-.5.7a3.04 3.04 0 0 1-.7.5 2.39 2.39 0 0 1-.9.2c-.3 0-.6-.1-.9-.2s-.5-.3-.7-.5c0-.2-.2-.5-.3-.7zm2.1.6c.2 0 .4 0 .5-.1.2-.1.3-.2.5-.3.3-.3.4-.6.4-1 0-.2 0-.4-.1-.6s-.2-.3-.3-.5l-1-1-1 1c-.1.1-.2.3-.3.5s-.1.4-.1.6c0 .4.1.7.4 1a1.53 1.53 0 0 0 1 .4zm6.3-.1c.3 0 .5-.1.7-.3s.3-.4.3-.7c0-.1 0-.2-.1-.4l-1-2.8.7-.3 1.3 3.7c.1.2.2.4.4.6.2.1.4.2.7.2h.3c.1 0 .1 0 .1.1v.6c0 .1 0 .1-.1.1h-.2c-.4 0-.7-.1-.9-.3-.3-.2-.5-.4-.6-.7-.1.3-.3.5-.6.7s-.6.2-.9.2h-2.7v-.8h2.6z" class="D"/><path d="M34.9 57.6V57c0-.1 0-.1.1-.1h2.3c.1 0 .1 0 .1.1v.6c0 .1 0 .1-.1.1H35c-.1 0-.1 0-.1-.1z" class="D"/><use xlink:href="#D" class="D"/><path d="M39.4 57.6V57c0-.1 0-.1.1-.1h2.3c.1 0 .1 0 .1.1v.6c0 .1 0 .1-.1.1h-2.3s-.1 0-.1-.1z" class="D"/><use xlink:href="#D" x="4.5" class="D"/><path d="M44.1 56.9h.6c.3 0 .6-.1.8-.3s.3-.5.3-.8V54h.7v1.8c0 .3.1.6.3.8s.5.3.8.3h.6c.1 0 .1 0 .1.1v.6c0 .1 0 .1-.1.1h-.6c-.3 0-.6-.1-.9-.3s-.5-.4-.6-.7c-.1.3-.3.5-.6.7s-.6.3-.9.3H44c-.1 0-.1 0-.1-.1V57c0 0 .1-.1.2-.1zm1.6-4.9h.9v.9h-.9V52z" class="D"/><use xlink:href="#D" x="11" class="D"/><path d="M50.4 57.6V57c0-.1 0-.1.1-.1h.7c.3 0 .6-.1.8-.3s.3-.5.3-.8v-2.1h.7v2.1a1.69 1.69 0 0 1-.3 1c-.2.3-.4.5-.7.7a1.69 1.69 0 0 1-1 .3h-.7c.2-.1.1-.1.1-.2zm.2 1.3h.9v.9h-.9v-.9zm1.5 0h.9v.9h-.9v-.9zm1.7-9.5c.2-.2.4-.2.6-.2h2.1v.6h-2.1c-.1 0-.2 0-.3.1s-.1.2-.1.3v.5h-.5V50l.3-.6zm1 1.3h.7v7h-.7v-7zm14.5 6.4v.6c0 .1 0 .1-.1.1h-6.9c-.5 0-.9-.1-1.3-.3a1.96 1.96 0 0 1-.9-.9c-.2-.4-.3-.8-.3-1.3V54h.7v1.1c0 .3.1.6.2.9.2.3.4.5.6.6.3.2.6.2.9.2h2.7c-.4-.4-.6-.9-.6-1.5 0-.4.1-.8.3-1.1s.5-.6.8-.8.7-.3 1.1-.3.8.1 1.1.3.6.5.8.8.3.7.3 1.1c0 .6-.2 1.1-.6 1.5h.9c.3.1.3.2.3.3zm-3.7-.6c.3.3.6.4 1 .4s.7-.1 1-.4.4-.6.4-1-.1-.7-.4-1-.6-.4-1-.4-.7.1-1 .4-.4.6-.4 1 .1.7.4 1zm1.5-5.3v.9h-.9v-.9h.9z" class="D"/><use xlink:href="#D" x="31.9" class="D"/><path d="M71.3 57.6V57c0-.1 0-.1.1-.1h2.3c.1 0 .1 0 .1.1v.6c0 .1 0 .1-.1.1h-2.3c0 0-.1 0-.1-.1z" class="D"/><path d="M73.6 57.6V57c0-.1 0-.1.1-.1H76c.1 0 .1 0 .1.1v.6c0 .1 0 .1-.1.1h-2.3c-.1 0-.1 0-.1-.1z" class="D"/><path d="M75.8 57.6V57c0-.1 0-.1.1-.1h2.3c.1 0 .1 0 .1.1v.6c0 .1 0 .1-.1.1h-2.3c0 0-.1 0-.1-.1z" class="D"/><path d="M88.6 57.1v.6c0 .1 0 .1-.1.1h-.6c-.3 0-.6-.1-.9-.2-.3-.2-.5-.4-.6-.7-.1.3-.4.5-.6.7s-.6.3-.9.3-.6-.1-.9-.3-.5-.4-.6-.7c-.2.3-.4.5-.6.7s-.6.3-.9.3-.7-.1-.9-.3-.5-.4-.6-.7c-.2.3-.4.5-.6.7-.3.2-.6.2-.9.2h-.6c-.1 0-.1 0-.1-.1v-.6c0-.1 0-.1.1-.1h.6c.3 0 .6-.1.8-.3s.3-.5.3-.8V54h.7v1.8c0 .3.1.6.3.8s.5.3.8.3.6-.1.8-.3.3-.5.3-.8V54h.7v1.8c0 .3.1.6.3.8s.5.3.8.3.6-.1.8-.3.3-.5.3-.8v-2.2h.7v2.1c0 .3.1.6.3.8s.5.3.8.3h.6c.4.1.4.2.4.3zm-5.5-5v.9h-.9v-.9h.9zm.7-1.5v.9h-.9v-.9h.9zm-.1 2.4v-.9h.9v.9h-.9z" class="D"/><use xlink:href="#D" x="51.2" class="D"/><path d="M90.8 56.9h2.6c.4 0 .7-.1.9-.4.3-.3.4-.6.4-.9 0-.5-.2-.9-.7-1.2l-2.9-1.9v-.7l2.3-2.4.5.5-2.1 2.2 2.7 1.8c.3.2.5.4.7.7a1.69 1.69 0 0 1 .3 1 1.69 1.69 0 0 1-.3 1c-.2.3-.4.6-.8.8a1.93 1.93 0 0 1-1 .3h-2.6c-.1 0-.1 0-.1-.1V57s0-.1.1-.1zm10.1.5a1.96 1.96 0 0 1-.9-.9c-.2-.4-.3-.8-.3-1.3V54h.7v1.1c0 .3.1.6.2.9.2.3.4.5.6.6.3.2.6.2.9.2h4.2c.4 0 .7-.1 1-.4s.4-.6.4-1V54h.7v1.5c0 .4-.1.8-.3 1.1s-.5.6-.8.8-.7.3-1.1.3H102c-.3 0-.7-.1-1.1-.3zm2-4.3h.9v.9h-.9v-.9zm1.5 0h.9v.9h-.9v-.9zm8.4 3.8c.3 0 .5-.1.7-.3s.3-.4.3-.7c0-.1 0-.2-.1-.4l-1-2.8.7-.3 1.3 3.7c.1.2.2.4.4.6.2.1.4.2.7.2h.2c.1 0 .1 0 .1.1v.6c0 .1 0 .1-.1.1h-.2c-.4 0-.7-.1-.9-.3-.3-.2-.5-.4-.6-.7-.1.3-.3.5-.6.7s-.6.2-.9.2h-2.7v-.8h2.7zm-.2-6.3h.9v.9h-.9v-.9z" class="D"/><path d="M115.9 57.6V57c0-.1 0-.1.1-.1h2.3c.1 0 .1 0 .1.1v.6c0 .1 0 .1-.1.1H116s-.1 0-.1-.1z" class="D"/><use xlink:href="#D" x="81" class="D"/><path d="M120.4 57.6V57c0-.1 0-.1.1-.1h.5c.3 0 .6-.1.8-.3s.3-.5.3-.8v-5.9h.7v5.9a1.69 1.69 0 0 1-.3 1c-.2.3-.4.5-.7.7a1.69 1.69 0 0 1-1 .3h-.5c.2-.1.1-.1.1-.2z" class="D"/><defs ><path id="B" d="M36.9 40.8c-.4-.2-.6-.5-.8-.9s-.3-.8-.3-1.2V33h2v5.7c0 .1 0 .2.1.3s.2.1.3.1h.7c.1 0 .1 0 .1.1V41c0 .1 0 .1-.1.1h-.7c-.5 0-.9-.1-1.3-.3z"/><path id="C" d="M38.7 41v-1.8c0-.1 0-.1.1-.1h1.5c.1 0 .1 0 .1.1V41c0 .1 0 .1-.1.1h-1.5c-.1 0-.1 0-.1-.1z"/><path id="D" d="M37.2 57.6V57c0-.1 0-.1.1-.1h2.3c.1 0 .1 0 .1.1v.6c0 .1 0 .1-.1.1h-2.3c-.1 0-.1 0-.1-.1z"/></defs></svg>